<?xml version="1.0" encoding="UTF-8" standalone="no"?>
<!DOCTYPE svg PUBLIC "-//W3C//DTD SVG 1.1//EN" "http://www.w3.org/Graphics/SVG/1.1/DTD/svg11.dtd">
<svg width="100%" height="100%" viewBox="0 0 600 300" version="1.1" xmlns="http://www.w3.org/2000/svg" xmlns:xlink="http://www.w3.org/1999/xlink" xml:space="preserve" xmlns:serif="http://www.serif.com/" style="fill-rule:evenodd;clip-rule:evenodd;stroke-linejoin:round;stroke-miterlimit:2;">
    <g transform="matrix(0.634417,0,0,0.634417,112.081,182.734)">
        <g transform="matrix(250,0,0,250,0,0)">
            <path d="M0.161,0.246C0.161,0.263 0.157,0.275 0.148,0.284C0.139,0.293 0.128,0.297 0.116,0.297C0.084,0.296 0.067,0.278 0.065,0.245C0.063,0.185 0.06,0.081 0.058,-0.066C0.057,-0.213 0.056,-0.328 0.057,-0.413C0.057,-0.47 0.06,-0.505 0.066,-0.518C0.072,-0.528 0.08,-0.536 0.09,-0.542C0.101,-0.548 0.112,-0.549 0.122,-0.548C0.133,-0.547 0.142,-0.542 0.15,-0.533C0.157,-0.524 0.16,-0.515 0.157,-0.506C0.154,-0.494 0.152,-0.479 0.151,-0.46C0.198,-0.493 0.246,-0.509 0.294,-0.509C0.32,-0.509 0.343,-0.507 0.363,-0.501C0.383,-0.496 0.401,-0.487 0.418,-0.474C0.436,-0.46 0.45,-0.443 0.461,-0.421C0.473,-0.399 0.482,-0.371 0.489,-0.337C0.495,-0.304 0.499,-0.264 0.5,-0.218C0.5,-0.196 0.497,-0.174 0.492,-0.151C0.487,-0.128 0.478,-0.105 0.467,-0.084C0.455,-0.063 0.441,-0.043 0.425,-0.026C0.409,-0.009 0.39,0.004 0.367,0.015C0.344,0.025 0.32,0.031 0.294,0.031C0.23,0.032 0.185,0.028 0.157,0.019C0.158,0.051 0.158,0.093 0.159,0.146C0.16,0.199 0.161,0.232 0.161,0.246ZM0.15,-0.354C0.15,-0.342 0.15,-0.318 0.151,-0.281C0.152,-0.245 0.153,-0.207 0.154,-0.168C0.154,-0.13 0.155,-0.093 0.155,-0.059C0.168,-0.054 0.187,-0.051 0.21,-0.051C0.234,-0.05 0.258,-0.051 0.282,-0.052C0.303,-0.053 0.321,-0.06 0.337,-0.072C0.353,-0.084 0.365,-0.1 0.373,-0.119C0.382,-0.138 0.388,-0.159 0.391,-0.181C0.395,-0.203 0.397,-0.226 0.396,-0.25C0.395,-0.278 0.392,-0.303 0.387,-0.324C0.383,-0.345 0.378,-0.361 0.372,-0.374C0.365,-0.387 0.358,-0.397 0.349,-0.405C0.34,-0.413 0.331,-0.418 0.322,-0.421C0.312,-0.423 0.302,-0.425 0.29,-0.425C0.268,-0.425 0.243,-0.419 0.218,-0.408C0.192,-0.396 0.169,-0.382 0.15,-0.366L0.15,-0.354Z" style="fill:rgb(255,145,0);fill-rule:nonzero;"/>
        </g>
    </g>
    <g transform="matrix(0.634417,0,0,0.634417,217.077,182.721)">
        <g transform="matrix(250,0,0,250,0,0)">
            <path d="M0.251,0.027C0.219,0.026 0.189,0.018 0.162,0.003C0.135,-0.012 0.112,-0.031 0.094,-0.056C0.077,-0.08 0.063,-0.109 0.053,-0.14C0.043,-0.172 0.039,-0.205 0.04,-0.24C0.04,-0.28 0.045,-0.317 0.055,-0.351C0.066,-0.386 0.081,-0.416 0.101,-0.441C0.121,-0.467 0.146,-0.487 0.177,-0.501C0.208,-0.516 0.243,-0.523 0.281,-0.523C0.305,-0.523 0.328,-0.52 0.35,-0.513C0.372,-0.506 0.392,-0.495 0.412,-0.48C0.431,-0.465 0.448,-0.446 0.461,-0.424C0.475,-0.401 0.485,-0.373 0.492,-0.338C0.499,-0.304 0.501,-0.266 0.499,-0.224C0.496,-0.183 0.49,-0.147 0.479,-0.117C0.469,-0.087 0.454,-0.061 0.435,-0.039C0.415,-0.016 0.39,0 0.36,0.011C0.329,0.022 0.293,0.027 0.251,0.027ZM0.273,-0.058C0.293,-0.057 0.311,-0.061 0.327,-0.069C0.343,-0.078 0.355,-0.091 0.365,-0.108C0.375,-0.125 0.383,-0.144 0.388,-0.167C0.394,-0.189 0.397,-0.213 0.398,-0.241C0.401,-0.311 0.39,-0.363 0.367,-0.396C0.344,-0.428 0.311,-0.445 0.268,-0.445C0.229,-0.445 0.199,-0.427 0.178,-0.391C0.158,-0.356 0.146,-0.306 0.142,-0.242C0.141,-0.22 0.142,-0.2 0.144,-0.183C0.146,-0.166 0.149,-0.149 0.155,-0.134C0.161,-0.118 0.168,-0.105 0.178,-0.095C0.188,-0.084 0.201,-0.076 0.217,-0.069C0.232,-0.063 0.251,-0.059 0.273,-0.058Z" style="fill:rgb(33,33,33);fill-rule:nonzero;"/>
        </g>
        <g transform="matrix(250,0,0,250,136.23,0)">
            <path d="M0.18,-0.022C0.181,0.01 0.164,0.025 0.129,0.023C0.116,0.023 0.105,0.019 0.097,0.013C0.089,0.006 0.085,-0.006 0.083,-0.022C0.083,-0.025 0.081,-0.041 0.077,-0.072C0.074,-0.102 0.071,-0.128 0.071,-0.147C0.069,-0.19 0.071,-0.248 0.076,-0.32C0.081,-0.392 0.084,-0.438 0.084,-0.457C0.085,-0.477 0.091,-0.492 0.102,-0.501C0.113,-0.51 0.126,-0.515 0.141,-0.515C0.155,-0.515 0.166,-0.51 0.175,-0.501C0.183,-0.493 0.187,-0.478 0.186,-0.458L0.18,-0.397C0.187,-0.41 0.199,-0.422 0.215,-0.435C0.23,-0.448 0.25,-0.46 0.272,-0.471C0.295,-0.482 0.322,-0.491 0.354,-0.498C0.385,-0.504 0.418,-0.507 0.453,-0.506C0.46,-0.504 0.466,-0.497 0.472,-0.484C0.478,-0.472 0.482,-0.457 0.484,-0.441C0.487,-0.424 0.488,-0.408 0.489,-0.391C0.489,-0.374 0.488,-0.36 0.484,-0.35C0.482,-0.338 0.477,-0.328 0.47,-0.322C0.463,-0.316 0.454,-0.311 0.443,-0.308C0.431,-0.306 0.42,-0.308 0.41,-0.316C0.4,-0.324 0.394,-0.334 0.393,-0.346C0.391,-0.353 0.391,-0.362 0.39,-0.373C0.39,-0.384 0.389,-0.393 0.388,-0.401C0.386,-0.408 0.383,-0.415 0.377,-0.42C0.356,-0.42 0.334,-0.416 0.313,-0.408C0.292,-0.399 0.273,-0.389 0.258,-0.377C0.242,-0.365 0.228,-0.351 0.215,-0.336C0.202,-0.322 0.192,-0.309 0.184,-0.297C0.177,-0.285 0.172,-0.275 0.169,-0.267C0.168,-0.232 0.167,-0.205 0.168,-0.187C0.168,-0.162 0.17,-0.13 0.174,-0.089C0.177,-0.049 0.179,-0.027 0.18,-0.022Z" style="fill:rgb(33,33,33);fill-rule:nonzero;"/>
        </g>
        <g transform="matrix(250,0,0,250,272.461,0)">
            <path d="M0.122,-0.03C0.122,-0.019 0.121,-0.01 0.118,-0.002C0.115,0.005 0.111,0.011 0.106,0.014C0.101,0.018 0.096,0.02 0.091,0.021C0.086,0.023 0.08,0.023 0.074,0.023C0.061,0.023 0.05,0.019 0.043,0.011C0.035,0.004 0.031,-0.01 0.031,-0.03C0.031,-0.036 0.031,-0.044 0.03,-0.056C0.03,-0.068 0.029,-0.083 0.028,-0.101C0.027,-0.119 0.026,-0.135 0.026,-0.147C0.023,-0.231 0.023,-0.335 0.026,-0.46C0.026,-0.483 0.032,-0.5 0.043,-0.51C0.054,-0.521 0.067,-0.526 0.082,-0.525C0.095,-0.525 0.106,-0.52 0.114,-0.51C0.122,-0.5 0.124,-0.483 0.121,-0.461C0.12,-0.455 0.119,-0.447 0.117,-0.436C0.115,-0.425 0.114,-0.417 0.113,-0.411C0.145,-0.477 0.189,-0.51 0.246,-0.51C0.259,-0.51 0.271,-0.501 0.281,-0.483C0.292,-0.465 0.3,-0.441 0.307,-0.41C0.344,-0.477 0.394,-0.51 0.459,-0.51C0.475,-0.51 0.487,-0.5 0.497,-0.481C0.506,-0.461 0.511,-0.436 0.514,-0.403C0.516,-0.371 0.518,-0.334 0.519,-0.293C0.519,-0.252 0.519,-0.211 0.518,-0.168C0.517,-0.125 0.517,-0.083 0.519,-0.042C0.519,-0.028 0.519,-0.017 0.517,-0.008C0.515,0.001 0.512,0.007 0.508,0.012C0.503,0.016 0.499,0.019 0.495,0.02C0.49,0.022 0.485,0.022 0.479,0.022C0.472,0.023 0.467,0.022 0.461,0.021C0.456,0.019 0.45,0.017 0.445,0.012C0.439,0.008 0.434,0.002 0.431,-0.007C0.427,-0.016 0.425,-0.028 0.425,-0.042C0.423,-0.064 0.423,-0.091 0.423,-0.122C0.424,-0.153 0.425,-0.186 0.425,-0.22C0.426,-0.255 0.426,-0.286 0.426,-0.315C0.426,-0.344 0.424,-0.368 0.422,-0.387C0.419,-0.406 0.415,-0.416 0.41,-0.416C0.391,-0.417 0.374,-0.407 0.358,-0.387C0.343,-0.367 0.33,-0.341 0.319,-0.309C0.321,-0.272 0.32,-0.222 0.318,-0.16C0.315,-0.098 0.314,-0.056 0.315,-0.034C0.316,-0.022 0.316,-0.012 0.313,-0.004C0.311,0.004 0.307,0.01 0.302,0.013C0.298,0.017 0.293,0.02 0.288,0.021C0.283,0.022 0.277,0.023 0.271,0.022C0.258,0.022 0.248,0.019 0.24,0.011C0.232,0.003 0.228,-0.012 0.226,-0.034C0.224,-0.056 0.225,-0.093 0.229,-0.146C0.233,-0.199 0.234,-0.241 0.234,-0.271L0.234,-0.294C0.234,-0.345 0.233,-0.377 0.231,-0.393C0.229,-0.408 0.222,-0.416 0.212,-0.416C0.196,-0.416 0.179,-0.405 0.162,-0.383C0.144,-0.361 0.129,-0.335 0.117,-0.305C0.116,-0.283 0.116,-0.244 0.118,-0.187C0.118,-0.164 0.118,-0.134 0.12,-0.097C0.121,-0.06 0.122,-0.038 0.122,-0.03Z" style="fill:rgb(33,33,33);fill-rule:nonzero;"/>
        </g>
    </g>
    <g transform="matrix(0.634417,0,0,0.634417,187.15,113.825)">
        <g transform="matrix(83.333,0,0,83.333,0,0)">
            <path d="M0.515,-0.199C0.515,-0.13 0.493,-0.076 0.451,-0.036C0.409,0.004 0.35,0.024 0.274,0.024C0.25,0.024 0.227,0.021 0.204,0.014C0.181,0.007 0.161,-0.002 0.143,-0.013C0.125,-0.024 0.11,-0.036 0.097,-0.049C0.084,-0.062 0.074,-0.075 0.067,-0.088C0.06,-0.104 0.057,-0.118 0.06,-0.13C0.062,-0.143 0.069,-0.152 0.08,-0.157C0.093,-0.164 0.105,-0.165 0.116,-0.162C0.128,-0.159 0.139,-0.151 0.149,-0.137C0.164,-0.117 0.182,-0.099 0.205,-0.083C0.228,-0.068 0.252,-0.06 0.278,-0.06C0.318,-0.06 0.351,-0.071 0.376,-0.094C0.402,-0.117 0.415,-0.146 0.415,-0.182C0.415,-0.203 0.412,-0.222 0.405,-0.239C0.398,-0.255 0.388,-0.269 0.373,-0.281C0.358,-0.293 0.338,-0.302 0.313,-0.309C0.288,-0.315 0.258,-0.318 0.223,-0.318C0.209,-0.318 0.197,-0.323 0.187,-0.334C0.177,-0.345 0.172,-0.357 0.172,-0.371C0.172,-0.385 0.176,-0.396 0.183,-0.405C0.19,-0.414 0.201,-0.418 0.215,-0.418C0.271,-0.418 0.315,-0.43 0.346,-0.452C0.378,-0.474 0.394,-0.507 0.393,-0.549C0.394,-0.579 0.383,-0.601 0.361,-0.616C0.34,-0.63 0.308,-0.638 0.268,-0.638C0.259,-0.638 0.252,-0.637 0.245,-0.635C0.238,-0.634 0.232,-0.632 0.227,-0.631C0.222,-0.629 0.216,-0.626 0.211,-0.622C0.205,-0.618 0.201,-0.615 0.198,-0.612C0.195,-0.61 0.191,-0.605 0.186,-0.599C0.181,-0.593 0.178,-0.589 0.176,-0.587C0.174,-0.584 0.171,-0.579 0.166,-0.572C0.155,-0.558 0.144,-0.549 0.133,-0.546C0.122,-0.543 0.11,-0.545 0.097,-0.552C0.086,-0.557 0.079,-0.566 0.077,-0.579C0.074,-0.591 0.077,-0.605 0.084,-0.622C0.091,-0.635 0.099,-0.647 0.109,-0.658C0.119,-0.67 0.132,-0.68 0.146,-0.69C0.16,-0.7 0.178,-0.708 0.198,-0.714C0.218,-0.719 0.24,-0.722 0.263,-0.722C0.34,-0.722 0.398,-0.706 0.436,-0.674C0.474,-0.642 0.493,-0.595 0.492,-0.532C0.493,-0.513 0.49,-0.495 0.485,-0.479C0.48,-0.463 0.473,-0.45 0.464,-0.439C0.455,-0.429 0.444,-0.419 0.432,-0.411C0.419,-0.403 0.407,-0.396 0.394,-0.391C0.381,-0.387 0.367,-0.383 0.352,-0.38C0.379,-0.374 0.403,-0.367 0.422,-0.358C0.441,-0.35 0.458,-0.338 0.472,-0.324C0.486,-0.311 0.497,-0.293 0.504,-0.273C0.511,-0.252 0.515,-0.227 0.515,-0.199Z" style="fill:rgb(255,145,0);fill-rule:nonzero;"/>
        </g>
    </g>
</svg>
